<svg xmlns="http://www.w3.org/2000/svg" viewBox="0 0 60 60"><path d="M10 25.465h13a1 1 0 100-2H10a1 1 0 100 2zM36 29.465H10a1 1 0 100 2h26a1 1 0 100-2zM36 35.465H10a1 1 0 100 2h26a1 1 0 100-2z"/><path d="M54.072 2.535l-34.142-.07c-3.27 0-5.93 2.66-5.93 5.93v5.124l-8.07.017c-3.27 0-5.93 2.66-5.93 5.93v21.141c0 3.27 2.66 5.929 5.93 5.929H12v10a1 1 0 001.74.673l9.704-10.675 16.626-.068c3.27 0 5.93-2.66 5.93-5.929v-.113l5.26 5.786a1.002 1.002 0 001.74-.673v-10h1.07c3.27 0 5.93-2.66 5.93-5.929V8.465a5.937 5.937 0 00-5.928-5.93zM44 40.536a3.934 3.934 0 01-3.934 3.929l-17.07.07a1 1 0 00-.736.327L14 53.949v-8.414a1 1 0 00-1-1H5.93A3.934 3.934 0 012 40.606V19.465a3.935 3.935 0 013.932-3.93L15 15.516h.002l25.068-.052a3.934 3.934 0 013.93 3.93v21.142zm14-10.93a3.934 3.934 0 01-3.93 3.929H52a1 1 0 00-1 1v8.414l-5-5.5V19.395c0-3.27-2.66-5.93-5.932-5.93L16 13.514v-5.12a3.934 3.934 0 013.928-3.93l34.141.07h.002a3.934 3.934 0 013.93 3.93v21.142z"/></svg>