<svg viewBox="0 0 511 512" xmlns="http://www.w3.org/2000/svg"><path d="M500.629 311.332l-27.961-16.145c-30.16-17.414-30.188-60.949 0-78.375l27.96-16.144c7.173-4.145 9.63-13.316 5.49-20.488L445.874 75.824c-4.137-7.168-13.316-9.633-20.492-5.492l-27.961 16.145c-30.156 17.41-67.863-4.325-67.863-39.188V15c0-8.285-6.715-15-15-15H194.07c-8.28 0-15 6.715-15 15v32.29c0 34.827-37.672 56.616-67.863 39.187l-27.96-16.145c-7.169-4.14-16.349-1.684-20.493 5.492L2.512 180.18C-1.628 187.352.828 196.527 8 200.668l27.96 16.144c30.161 17.415 30.188 60.95 0 78.375L8.005 311.332c-7.176 4.145-9.633 13.316-5.492 20.488l60.242 104.356c4.137 7.168 13.316 9.637 20.492 5.492l27.961-16.145c30.152-17.414 67.863 4.32 67.863 39.188V497c0 8.285 6.715 15 15 15h120.485c8.285 0 15-6.715 15-15v-32.29c0-34.82 37.672-56.62 67.867-39.187l27.96 16.145c7.169 4.14 16.348 1.684 20.49-5.492l60.245-104.356c4.14-7.172 1.684-16.343-5.488-20.488zm-73.238 96.855l-14.97-8.644c-50.16-28.965-112.862 7.195-112.862 65.168V482H209.07v-17.29c0-57.92-62.664-94.155-112.863-65.167l-14.969 8.644-45.246-78.375 14.969-8.644c50.156-28.957 50.207-101.348.004-130.336l-14.973-8.645 45.246-78.375 14.969 8.645c50.16 28.965 112.863-7.195 112.863-65.168V30h90.489v17.29c0 57.92 62.66 94.155 112.863 65.167l14.969-8.645 45.246 78.375-14.969 8.645c-50.156 28.957-50.207 101.348-.004 130.336l14.973 8.644zm0 0"/><path d="M254.316 151c-57.894 0-104.992 47.102-104.992 105s47.098 105 104.992 105c57.891 0 104.989-47.102 104.989-105s-47.098-105-104.989-105zm0 180c-41.351 0-74.992-33.645-74.992-75s33.64-75 74.992-75c41.348 0 74.989 33.645 74.989 75s-33.64 75-74.989 75zm0 0"/></svg>