<?xml version="1.0" encoding="iso-8859-1"?>
<!-- Generator: Adobe Illustrator 17.1.0, SVG Export Plug-In . SVG Version: 6.00 Build 0)  -->
<!DOCTYPE svg PUBLIC "-//W3C//DTD SVG 1.1//EN" "http://www.w3.org/Graphics/SVG/1.1/DTD/svg11.dtd">
<svg version="1.1" id="Capa_1" xmlns="http://www.w3.org/2000/svg" xmlns:xlink="http://www.w3.org/1999/xlink" x="0px" y="0px"
	 viewBox="0 0 465 465" style="enable-background:new 0 0 465 465;" xml:space="preserve">
<g>
	<path d="M457.5,15H7.5C3.357,15,0,18.358,0,22.5v420c0,4.142,3.357,7.5,7.5,7.5h450c4.143,0,7.5-3.358,7.5-7.5v-420
		C465,18.358,461.643,15,457.5,15z M450,30v35H15V30H450z M15,435V80h435v355H15z"/>
	<path d="M390,55.5c4.411,0,8-3.589,8-8s-3.589-8-8-8s-8,3.589-8,8S385.589,55.5,390,55.5z"/>
	<path d="M425,55.5c4.411,0,8-3.589,8-8s-3.589-8-8-8s-8,3.589-8,8S420.589,55.5,425,55.5z"/>
	<path d="M355,55.5c4.411,0,8-3.589,8-8s-3.589-8-8-8s-8,3.589-8,8S350.589,55.5,355,55.5z"/>
	<path d="M397.5,170h-330c-4.143,0-7.5,3.358-7.5,7.5s3.357,7.5,7.5,7.5h330c4.143,0,7.5-3.358,7.5-7.5S401.643,170,397.5,170z"/>
	<path d="M397.5,130h-330c-4.143,0-7.5,3.358-7.5,7.5s3.357,7.5,7.5,7.5h330c4.143,0,7.5-3.358,7.5-7.5S401.643,130,397.5,130z"/>
	<path d="M212.5,250h-145c-4.143,0-7.5,3.358-7.5,7.5s3.357,7.5,7.5,7.5h145c4.143,0,7.5-3.358,7.5-7.5S216.643,250,212.5,250z"/>
	<path d="M212.5,210h-145c-4.143,0-7.5,3.358-7.5,7.5s3.357,7.5,7.5,7.5h145c4.143,0,7.5-3.358,7.5-7.5S216.643,210,212.5,210z"/>
	<path d="M212.5,290h-145c-4.143,0-7.5,3.358-7.5,7.5s3.357,7.5,7.5,7.5h145c4.143,0,7.5-3.358,7.5-7.5S216.643,290,212.5,290z"/>
	<path d="M212.5,330h-145c-4.143,0-7.5,3.358-7.5,7.5s3.357,7.5,7.5,7.5h145c4.143,0,7.5-3.358,7.5-7.5S216.643,330,212.5,330z"/>
	<path d="M397.5,210h-145c-4.143,0-7.5,3.358-7.5,7.5v25c0,4.142,3.357,7.5,7.5,7.5s7.5-3.358,7.5-7.5V225h130v145H260v-97.5
		c0-4.142-3.357-7.5-7.5-7.5s-7.5,3.358-7.5,7.5v105c0,4.142,3.357,7.5,7.5,7.5h145c4.143,0,7.5-3.358,7.5-7.5v-160
		C405,213.358,401.643,210,397.5,210z"/>
	<path d="M212.5,370h-145c-4.143,0-7.5,3.358-7.5,7.5s3.357,7.5,7.5,7.5h145c4.143,0,7.5-3.358,7.5-7.5S216.643,370,212.5,370z"/>
</g>
<g>
</g>
<g>
</g>
<g>
</g>
<g>
</g>
<g>
</g>
<g>
</g>
<g>
</g>
<g>
</g>
<g>
</g>
<g>
</g>
<g>
</g>
<g>
</g>
<g>
</g>
<g>
</g>
<g>
</g>
</svg>
