<svg xmlns="http://www.w3.org/2000/svg" viewBox="0 0 400 400"><path d="M199.992 0C89.719 0 0 89.72 0 200s89.719 200 199.992 200C310.273 400 400 310.28 400 200S310.273 0 199.992 0zm0 373.77C104.18 373.77 26.23 295.816 26.23 200c0-95.817 77.949-173.769 173.762-173.769 95.824 0 173.776 77.953 173.776 173.769.001 95.816-77.952 173.77-173.776 173.77z"/><path d="M196.293 125.97c9.656 0 17.488-7.832 17.488-17.489s-7.832-17.489-17.488-17.489c-9.664 0-17.488 7.832-17.488 17.489s7.824 17.489 17.488 17.489zM224.09 279.586h-10.969V154.564c0-7.243-5.871-13.116-13.113-13.116h-24.094c-7.242 0-13.113 5.873-13.113 13.116s5.871 13.115 13.113 13.115h10.977v111.907h-10.977c-7.242 0-13.113 5.872-13.113 13.115 0 7.242 5.871 13.115 13.113 13.115h48.176c7.246 0 13.117-5.873 13.117-13.115 0-7.243-5.871-13.115-13.117-13.115z"/></svg>